<?xml version="1.0" encoding="iso-8859-1"?>
<!-- Generator: Adobe Illustrator 19.0.0, SVG Export Plug-In . SVG Version: 6.00 Build 0)  -->
<svg version="1.1" id="Layer_1" xmlns="http://www.w3.org/2000/svg" xmlns:xlink="http://www.w3.org/1999/xlink" x="0px" y="0px"
	 viewBox="0 0 420 420" style="enable-background:new 0 0 420 420;" xml:space="preserve">
<g>
	<rect x="40" y="130.488" style="fill:#F8A805;" width="50" height="70"/>
	<rect x="327.301" y="130.488" style="fill:#F8A805;" width="50" height="70"/>
	<rect y="195.488" style="fill:#EFEFEF;" width="135" height="200"/>
	<rect x="285" y="195.488" style="fill:#EFEFEF;" width="135" height="200"/>
	<rect x="130" y="178.488" style="fill:#37495E;" width="32" height="45"/>
	<rect x="194" y="178.488" style="fill:#37495E;" width="32" height="45"/>
	<rect x="258" y="178.488" style="fill:#37495E;" width="32" height="45"/>
	<rect x="130" y="218.488" style="fill:#F8A805;" width="160" height="190"/>
	<path style="fill:#37495E;" d="M210.35,293.488h-0.7c-19.137,0-34.65,15.513-34.65,34.65v80.35h70v-80.35
		C245,309.002,229.487,293.488,210.35,293.488z"/>
	<polygon style="fill:#37495E;" points="21.699,135.488 65,77.488 108.301,135.488 	"/>
	<rect x="57" y="18.488" style="fill:#37495E;" width="16" height="69"/>
	<path style="fill:#3E81C8;" d="M132,55.988c-25,25.9-50-25.9-75,0c0-12.333,0-24.667,0-37c25-25.9,50,25.9,75,0
		C132,31.322,132,43.655,132,55.988z"/>
	<polygon style="fill:#37495E;" points="309,135.488 352.301,77.488 395.603,135.488 	"/>
	<rect x="344.302" y="18.488" style="fill:#37495E;" width="16" height="69"/>
	<path style="fill:#3E81C8;" d="M419.302,55.988c-25,25.9-50-25.9-75,0c0-12.333,0-24.667,0-37c25-25.9,50,25.9,75,0
		C419.302,31.322,419.302,43.655,419.302,55.988z"/>
	<rect x="35.5" y="310.488" style="fill:#F8A805;" width="43" height="43"/>
	<rect x="330" y="236.488" style="fill:#F8A805;" width="43" height="43"/>
</g>
<g>
</g>
<g>
</g>
<g>
</g>
<g>
</g>
<g>
</g>
<g>
</g>
<g>
</g>
<g>
</g>
<g>
</g>
<g>
</g>
<g>
</g>
<g>
</g>
<g>
</g>
<g>
</g>
<g>
</g>
</svg>
