<?xml version="1.0" encoding="utf-8"?>
<!-- Svg Vector Icons : http://www.onlinewebfonts.com/icon -->
<!DOCTYPE svg PUBLIC "-//W3C//DTD SVG 1.1//EN" "http://www.w3.org/Graphics/SVG/1.1/DTD/svg11.dtd">
<svg version="1.1" xmlns="http://www.w3.org/2000/svg" xmlns:xlink="http://www.w3.org/1999/xlink" x="0px" y="0px" viewBox="0 0 1000 1000" enable-background="new 0 0 1000 1000" xml:space="preserve">
<metadata> Svg Vector Icons : http://www.onlinewebfonts.com/icon </metadata>
<g><path d="M659,166.5h-81.5v-99c0-31.8-35.1-57.6-66.9-57.6h-16.4c-31.8,0-66.9,25.8-66.9,57.6v99H341c-9.8,0-17.7,7.9-17.7,17.7v60.7h353.4v-60.7C676.7,174.5,668.8,166.5,659,166.5z M500,145.1c-19.7,0-35.6-15.9-35.6-35.6c0-19.7,16-35.6,35.6-35.6c19.7,0,35.6,15.9,35.6,35.6C535.6,129.2,519.7,145.1,500,145.1z"/><path d="M500,60.8"/><path d="M742.2,990H257.8c-59.8,0-108.4-48.6-108.4-108.4V203.5c0-59.8,48.6-108.4,108.4-108.4h186.6v23.1H257.8c-47.1,0-85.3,38.3-85.3,85.3v678.1c0,47.1,38.3,85.3,85.3,85.3h484.4c47.1,0,85.4-38.3,85.4-85.3V203.5c0-47.1-38.3-85.3-85.4-85.3H559.4V95.2h182.8c59.8,0,108.4,48.6,108.4,108.4v678.1C850.6,941.4,802,990,742.2,990z"/><path d="M442.7,428.5H301.1c-6.4,0-11.5-5.2-11.5-11.5c0-6.4,5.2-11.5,11.5-11.5h141.6c6.4,0,11.5,5.2,11.5,11.5C454.2,423.3,449.1,428.5,442.7,428.5z"/><path d="M442.7,525.4H301.1c-6.4,0-11.5-5.2-11.5-11.5c0-6.4,5.2-11.5,11.5-11.5h141.6c6.4,0,11.5,5.2,11.5,11.5C454.2,520.2,449.1,525.4,442.7,525.4z"/><path d="M698.9,622.2H301.1c-6.4,0-11.5-5.2-11.5-11.5c0-6.4,5.2-11.5,11.5-11.5h397.8c6.4,0,11.5,5.2,11.5,11.5C710.4,617.1,705.3,622.2,698.9,622.2z"/><path d="M698.9,719.1H301.1c-6.4,0-11.5-5.2-11.5-11.5s5.2-11.5,11.5-11.5h397.8c6.4,0,11.5,5.2,11.5,11.5S705.3,719.1,698.9,719.1z"/><path d="M698.9,816H301.1c-6.4,0-11.5-5.2-11.5-11.5c0-6.4,5.2-11.5,11.5-11.5h397.8c6.4,0,11.5,5.2,11.5,11.5C710.4,810.8,705.3,816,698.9,816z"/></g>
</svg>