<svg id="Layer_1" enable-background="new 0 0 512 512" height="512" viewBox="0 0 512 512" width="512" xmlns="http://www.w3.org/2000/svg"><g><path d="m7.5 185.286h497v282h-497z" fill="#71e4bf"/><path d="m474.5 255.786v141c-20.43 0-37 16.57-37 37 0 1.18.06 2.35.17 3.5h-363.34c.11-1.15.17-2.32.17-3.5 0-20.43-16.57-37-37-37v-141c20.43 0 37-16.57 37-37 0-1.18-.06-2.35-.17-3.5h363.34c-.11 1.15-.17 2.32-.17 3.5 0 20.43 16.57 37 37 37z" fill="#e1fd9e"/><path d="m454.213 185.286-37.15-61.894c-17.517 10.514-40.252 4.834-50.766-12.683-.607-1.012-1.158-2.046-1.656-3.088l-129.396 77.666h218.968z" fill="#71e4bf"/><path d="m489.202 185.286-82.698-137.781-229.553 137.781z" fill="#71e4bf"/><circle cx="256" cy="326.286" fill="#91eacd" r="79"/><path d="m7.5 185.286h20v282h-20z" fill="#5fa6b0"/><path d="m57.5 396.786v-141c20.43 0 37-16.57 37-37 0-1.18-.06-2.35-.17-3.5h-20c.11 1.15.17 2.32.17 3.5 0 20.43-16.57 37-37 37v141c20.43 0 37 16.57 37 37 0 1.18-.06 2.35-.17 3.5h20c.11-1.15.17-2.32.17-3.5 0-20.43-16.57-37-37-37z" fill="#8ae897"/><g><g><g><path d="m420.189 128.6-3.126-5.209c-2.89 1.735-5.923 3.019-9.019 3.892 3.93 1.1 8.035 1.554 12.145 1.317z" fill="#5fa6b0"/></g><g><path d="m366.297 110.708c-.607-1.012-1.158-2.046-1.656-3.088l-129.396 77.666h20l115.091-69.079c-1.484-1.679-2.844-3.508-4.039-5.499z" fill="#5fa6b0"/></g></g></g><path d="m406.504 47.505-229.553 137.781h20l214.85-128.956z" fill="#5fa6b0"/><path d="m197 326.286c0-40.241 30.094-73.43 69-78.348-3.278-.414-6.61-.652-10-.652-43.63 0-79 35.37-79 79 0 43.631 35.37 79 79 79 3.39 0 6.722-.238 10-.652-38.906-4.919-69-38.108-69-78.348z" fill="#5fa6b0"/><g><g><path d="m398.509 318.786h15v15h-15z"/></g><g><path d="m98.509 318.786h15v15h-15z"/></g></g><path d="m169.5 326.286c0 47.696 38.804 86.5 86.5 86.5s86.5-38.804 86.5-86.5-38.804-86.5-86.5-86.5-86.5 38.804-86.5 86.5zm158 0c0 39.425-32.075 71.5-71.5 71.5s-71.5-32.075-71.5-71.5 32.075-71.5 71.5-71.5 71.5 32.075 71.5 71.5z"/><path d="m248.5 267.764v5.442c-13.355 3.357-23.273 15.463-23.273 29.845v3.757c0 13.618 10.146 24.905 23.273 26.717v29.868c-4.923-2.672-8.273-7.888-8.273-13.872v-.271h-15v.271c0 14.382 9.918 26.487 23.273 29.844v5.442h15v-5.442c13.355-3.357 23.273-15.463 23.273-29.844v-3.758c0-13.618-10.146-24.905-23.273-26.716v-29.868c4.923 2.672 8.273 7.889 8.273 13.873v.27h15v-.27c0-14.382-9.918-26.487-23.273-29.845v-5.442h-15zm0 50.429c-4.796-1.565-8.273-6.073-8.273-11.385v-3.757c0-5.984 3.35-11.2 8.273-13.873zm23.273 27.57v3.758c0 5.984-3.35 11.2-8.273 13.872v-29.014c4.796 1.564 8.273 6.073 8.273 11.384z"/><path d="m0 177.785v297h83.49v-15h-68.49v-267h482v267h-398.51v15h413.51v-297z"/><path d="m66.076 444.785h379.848l-.788-8.216c-.09-.938-.136-1.875-.136-2.784 0-16.266 13.233-29.5 29.5-29.5h7.5v-156h-7.5c-16.267 0-29.5-13.234-29.5-29.5 0-.909.046-1.846.136-2.784l.788-8.216h-77.704v15h61.958c1.806 20.173 17.129 36.512 36.822 39.868v127.265c-19.693 3.355-35.017 19.695-36.822 39.868h-348.356c-1.805-20.173-17.129-36.513-36.822-39.868v-127.265c19.693-3.355 35.017-19.695 36.822-39.868h271.398v-15h-287.144l.788 8.216c.09.938.136 1.875.136 2.784 0 16.266-13.233 29.5-29.5 29.5h-7.5v156h7.5c16.267 0 29.5 13.234 29.5 29.5 0 .909-.046 1.846-.136 2.784z"/><path d="m390.873 120.285c-7.646-1.911-14.09-6.684-18.151-13.454-.468-.776-.909-1.598-1.311-2.441l-3.552-7.456-86.489 51.92 7.721 12.86 72.985-43.813c6.125 8.425 14.928 14.378 25.16 16.936 9.067 2.266 18.401 1.65 26.931-1.689l15.603 25.997 12.861-7.72-23-38.321-6.431 3.86c-6.751 4.053-14.68 5.232-22.327 3.321z"/><path d="m477.621 151.426-68.55-114.211-186.001 111.64 7.719 12.861 173.14-103.92 60.831 101.349z"/></g></svg>