<svg height="496pt" viewBox="0 0 496 496" width="496pt" xmlns="http://www.w3.org/2000/svg" xmlns:xlink="http://www.w3.org/1999/xlink"><linearGradient id="a" gradientTransform="matrix(8 0 0 -8 -8 504)" gradientUnits="userSpaceOnUse" x1="32" x2="32" y1="1" y2="63"><stop offset="0" stop-color="#9f2fff"/><stop offset="1" stop-color="#0bb1d3"/></linearGradient><path d="m160 296c0 18.144531 3.679688 35.566406 10.550781 52.046875l-35.847656 11.953125h-6.703125v-16h-128v128h128v-16h7.015625l145.3125 36.328125c9.742187 2.441406 19.777344 3.671875 29.824219 3.671875 18.085937 0 36.28125-4.097656 52.632812-11.832031l114.640625-54.296875c11.277344-5.351563 18.574219-16.878906 18.574219-29.367188 0-14.191406-9.207031-26.160156-21.921875-30.574218 14.167969-21.90625 21.921875-47.671876 21.921875-73.921876v-72h-336zm-48 160h-48v-80h-16v80h-32v-96h64v80h16v-80h16zm368-55.503906c0 6.34375-3.703125 12.191406-9.433594 14.910156l-114.628906 54.296875c-22.128906 10.480469-47.984375 13.039063-71.730469 7.105469l-146.269531-36.570313-9.9375-.132812v-64.105469h9.296875l55.535156-18.511719c23.414063-7.808593 49.167969-7.222656 72.207031 1.648438l68.882813 26.488281c6.023437 2.320312 10.070313 8.207031 10.070313 14.664062 0 2.941407-.863282 5.671876-2.28125 8.03125l-.40625.144532.128906.359375c-2.792969 4.3125-7.632813 7.175781-13.144532 7.175781h-3.722656c-2.007812 0-3.972656-.375-5.839844-1.121094l-75.757812-30.3125-5.9375 14.859375 75.761719 30.300781c3.765625 1.503907 7.726562 2.265626 11.78125 2.265626h3.722656c9.136719 0 17.320313-3.945313 23.109375-10.152344l103.296875-36.886719c1.792969-.640625 3.65625-.960937 5.542969-.960937h3.257812c9.097656.007812 16.496094 7.40625 16.496094 16.503906zm0-160.496094v16h-32v16h32v16h-256v16h255.671875c-1.519531 23.511719-9.769531 45.558594-24.078125 64.398438-2.128906.3125-4.234375.761718-6.273438 1.488281l-89.480468 31.960937c.023437-.527344.160156-1.023437.160156-1.558594 0-13.023437-8.167969-24.929687-20.328125-29.601562l-68.871094-26.488281c-26.511719-10.199219-56.097656-10.871094-83.023437-1.886719l-2.015625.671875c-5.304688-12.410156-8.425781-25.449219-9.304688-38.984375h31.542969v-16h-32v-16h256v-16h-256v-16zm-160-160c0 8.824219 7.175781 16 16 16 17.648438 0 32 14.351562 32 32 0 14.863281-10.230469 27.289062-24 30.863281v17.136719h-16v-17.136719c-13.769531-3.574219-24-16-24-30.863281h16c0 8.824219 7.175781 16 16 16s16-7.175781 16-16-7.175781-16-16-16c-17.648438 0-32-14.351562-32-32 0-14.863281 10.230469-27.289062 24-30.863281v-17.136719h16v17.136719c13.769531 3.574219 24 16 24 30.863281h-16c0-8.824219-7.175781-16-16-16s-16 7.175781-16 16zm16-80c-57.34375 0-104 46.65625-104 104s46.65625 104 104 104 104-46.65625 104-104-46.65625-104-104-104zm0 192c-48.519531 0-88-39.480469-88-88s39.480469-88 88-88 88 39.480469 88 88-39.480469 88-88 88zm0 0" fill="url(#a)"/></svg>